<?xml version="1.0" encoding="UTF-8" standalone="no"?>
<!-- Created with Inkscape (http://www.inkscape.org/) -->

<svg
   xmlns:dc="http://purl.org/dc/elements/1.1/"
   xmlns:cc="http://creativecommons.org/ns#"
   xmlns:rdf="http://www.w3.org/1999/02/22-rdf-syntax-ns#"
   xmlns:svg="http://www.w3.org/2000/svg"
   xmlns="http://www.w3.org/2000/svg"
   xmlns:sodipodi="http://sodipodi.sourceforge.net/DTD/sodipodi-0.dtd"
   xmlns:inkscape="http://www.inkscape.org/namespaces/inkscape"
   width="25.192329mm"
   height="25.243931mm"
   viewBox="0 0 25.192329 25.243931"
   version="1.1"
   id="svg9662"
   inkscape:version="0.92.2 (5c3e80d, 2017-08-06)"
   sodipodi:docname="bak.svg">
  <defs
     id="defs9656" />
  <sodipodi:namedview
     id="base"
     pagecolor="#ffffff"
     bordercolor="#666666"
     borderopacity="1.0"
     inkscape:pageopacity="0.0"
     inkscape:pageshadow="2"
     inkscape:zoom="0.35"
     inkscape:cx="-266.67816"
     inkscape:cy="133.41935"
     inkscape:document-units="mm"
     inkscape:current-layer="layer1"
     showgrid="false"
     inkscape:window-width="1920"
     inkscape:window-height="1017"
     inkscape:window-x="-8"
     inkscape:window-y="-8"
     inkscape:window-maximized="1" />
  <metadata
     id="metadata9659">
    <rdf:RDF>
      <cc:Work
         rdf:about="">
        <dc:format>image/svg+xml</dc:format>
        <dc:type
           rdf:resource="http://purl.org/dc/dcmitype/StillImage" />
        <dc:title></dc:title>
      </cc:Work>
    </rdf:RDF>
  </metadata>
  <g
     inkscape:label="Layer 1"
     inkscape:groupmode="layer"
     id="layer1"
     transform="translate(-44.100264,-158.88994)">
    <path
       inkscape:connector-curvature="0"
       id="path3052"
       d="m 63.892447,166.21509 c 0.335862,-0.0517 0.648097,-0.183 0.936625,-0.39404 0.288501,-0.211 0.521044,-0.48014 0.697627,-0.80746 0.176538,-0.32726 0.264821,-0.65886 0.264847,-0.99478 -2.3e-5,-0.37893 -0.105529,-0.73853 -0.316521,-1.07876 -0.211034,-0.34017 -0.486648,-0.61579 -0.826822,-0.82682 -0.340228,-0.21099 -0.699797,-0.31649 -1.07876,-0.31652 -0.542634,2e-5 -1.048623,0.23902 -1.517994,0.71702 -0.469423,0.47802 -0.704109,0.99695 -0.704082,1.55676 -2.1e-5,0.50815 0.18946,0.97324 0.568431,1.39525 0.378936,0.42204 0.826796,0.6718 1.34358,0.7493 z m -2.144581,2.85512 h -1.459865 l -6.188339,14.41768 h -2.855119 l -7.144279,-19.9988 h 3.061758 l 5.503598,15.77419 5.503598,-13.04819 h 0.826823 c -0.335915,-0.689 -0.503872,-1.40385 -0.503846,-2.14458 -1.6e-5,-0.90432 0.241141,-1.75699 0.723477,-2.55799 0.482282,-0.80097 1.128236,-1.4383 1.937861,-1.91204 0.809572,-0.47368 1.679469,-0.71054 2.609665,-0.71054 0.878469,2e-5 1.698836,0.23257 2.461101,0.69763 0.762212,0.46511 1.367261,1.09384 1.815147,1.88619 0.447834,0.7924 0.671778,1.64073 0.671804,2.54505 -2.6e-5,0.71488 -0.14429,1.38883 -0.432805,2.02184 -0.288555,0.63304 -0.693341,1.18856 -1.214385,1.66656 -0.521097,0.47802 -1.095984,0.82899 -1.724713,1.05291 0.628703,0.51678 1.149773,1.06368 1.563211,1.64073 0.413385,0.57706 0.856933,1.30054 1.330669,2.17041 0.335862,0.62873 0.596398,1.28976 0.781606,1.98308 0.185147,0.69334 0.277733,1.38879 0.27776,2.08642 -2.7e-5,1.34358 -0.355309,2.58813 -1.065822,3.73354 -0.710565,1.14548 -1.797923,2.05843 -3.262047,2.73896 -1.464178,0.6804 -3.2512,1.02061 -5.361517,1.02061 v -2.72601 c 1.438301,-0.009 2.654829,-0.22178 3.649662,-0.63949 0.994754,-0.41773 1.737599,-0.98833 2.228559,-1.71178 0.490908,-0.72348 0.736362,-1.54599 0.736389,-2.46756 -2.4e-5,-1.26605 -0.430663,-2.60535 -1.291908,-4.01796 -0.439261,-0.70622 -0.878522,-1.29405 -1.317757,-1.76345 -0.439261,-0.46937 -1.059392,-1.04859 -1.860338,-1.73762 z"
       style="stroke-width:0.26458332" />
  </g>
</svg>
