<?xml version="1.0" encoding="UTF-8" standalone="no"?>
<!-- Created with Inkscape (http://www.inkscape.org/) -->

<svg
   xmlns:dc="http://purl.org/dc/elements/1.1/"
   xmlns:cc="http://creativecommons.org/ns#"
   xmlns:rdf="http://www.w3.org/1999/02/22-rdf-syntax-ns#"
   xmlns:svg="http://www.w3.org/2000/svg"
   xmlns="http://www.w3.org/2000/svg"
   xmlns:sodipodi="http://sodipodi.sourceforge.net/DTD/sodipodi-0.dtd"
   xmlns:inkscape="http://www.inkscape.org/namespaces/inkscape"
   width="17.143761mm"
   height="22.85383mm"
   viewBox="0 0 17.143761 22.85383"
   version="1.1"
   id="svg5134"
   inkscape:version="0.92.2 (5c3e80d, 2017-08-06)"
   sodipodi:docname="bika.svg">
  <defs
     id="defs5128" />
  <sodipodi:namedview
     id="base"
     pagecolor="#ffffff"
     bordercolor="#666666"
     borderopacity="1.0"
     inkscape:pageopacity="0.0"
     inkscape:pageshadow="2"
     inkscape:zoom="0.35"
     inkscape:cx="-319.03092"
     inkscape:cy="0.3311874"
     inkscape:document-units="mm"
     inkscape:current-layer="layer1"
     showgrid="false"
     inkscape:window-width="1920"
     inkscape:window-height="1017"
     inkscape:window-x="-8"
     inkscape:window-y="-8"
     inkscape:window-maximized="1" />
  <metadata
     id="metadata5131">
    <rdf:RDF>
      <cc:Work
         rdf:about="">
        <dc:format>image/svg+xml</dc:format>
        <dc:type
           rdf:resource="http://purl.org/dc/dcmitype/StillImage" />
        <dc:title></dc:title>
      </cc:Work>
    </rdf:RDF>
  </metadata>
  <g
     inkscape:label="Layer 1"
     inkscape:groupmode="layer"
     id="layer1"
     transform="translate(-57.951931,-126.06713)">
    <path
       inkscape:connector-curvature="0"
       id="path3079"
       d="m 70.909851,133.21119 c 0.61147,0.40482 1.17776,0.88067 1.69886,1.42756 0.52104,0.54692 0.96245,1.12612 1.32421,1.73763 0.36171,0.6115 0.64593,1.25317 0.85268,1.92495 0.20668,0.6718 0.31003,1.35652 0.31006,2.05414 -2e-5,1.03355 -0.23902,2.06706 -0.71702,3.10066 -0.47802,1.03354 -1.13043,1.96371 -1.95726,2.79056 -0.82684,0.82682 -1.75701,1.47923 -2.79056,1.95725 -1.03354,0.478 -2.07137,0.71702 -3.11361,0.71702 -1.02492,0 -2.04984,-0.23685 -3.07473,-0.71054 -1.02491,-0.47371 -1.95725,-1.12612 -2.79691,-1.95725 -0.83973,-0.83114 -1.49862,-1.76131 -1.97662,-2.79056 -0.478,-1.02923 -0.71702,-2.06489 -0.71702,-3.107 0,-0.90432 0.17656,-1.80007 0.5297,-2.68711 0.35311,-0.8871 0.84836,-1.71609 1.48568,-2.48693 0.63733,-0.77083 1.3565,-1.42756 2.1575,-1.97016 -0.62013,-0.43064 -1.1778,-0.90647 -1.67302,-1.42756 -0.49524,-0.52105 -0.93234,-1.09596 -1.31127,-1.72472 -0.37896,-0.6287 -0.67181,-1.28973 -0.8785,-1.98307 -0.20671,-0.69332 -0.31006,-1.36295 -0.31006,-2.00893 h 2.85512 c -10e-6,0.76655 0.23899,1.602 0.71702,2.50632 0.47799,0.90434 1.15625,1.66444 2.03475,2.28023 0.87849,0.61582 1.86465,0.92374 2.95857,0.92371 0.84405,2e-5 1.6192,-0.18085 2.32545,-0.54261 0.70622,-0.36171 1.3199,-0.84619 1.84097,-1.45341 0.52104,-0.60719 0.91077,-1.2316 1.16917,-1.87327 0.25836,-0.64164 0.38756,-1.25529 0.38756,-1.84097 h 2.85512 c -2e-5,0.68902 -0.10337,1.36945 -0.31007,2.0412 -0.20672,0.67181 -0.49093,1.31348 -0.85267,1.92495 -0.36174,0.61154 -0.801,1.18857 -1.31776,1.73117 -0.51678,0.54261 -1.08521,1.02492 -1.70532,1.44693 z m -10.10285,7.14428 c -1e-5,0.68903 0.15717,1.37158 0.47154,2.04767 0.31435,0.67611 0.75575,1.29836 1.32421,1.86682 0.56843,0.56843 1.1907,1.00983 1.86682,1.32421 0.67609,0.31438 1.35866,0.47154 2.04769,0.47154 0.69763,0 1.39094,-0.15933 2.07997,-0.478 0.689,-0.31866 1.30913,-0.75361 1.86034,-1.30481 0.5512,-0.55121 0.98615,-1.17134 1.30482,-1.86034 0.31866,-0.68903 0.47799,-1.37803 0.47799,-2.06706 -1e-5,-0.57706 -0.13136,-1.19502 -0.39404,-1.85388 -0.26271,-0.65887 -0.64812,-1.28545 -1.15626,-1.87974 -0.50816,-0.59425 -1.11966,-1.07227 -1.83451,-1.43401 -0.71488,-0.36174 -1.49432,-0.54258 -2.33836,-0.54261 -1.09384,2e-5 -2.08,0.30792 -2.95857,0.92372 -0.8785,0.61581 -1.55676,1.37588 -2.03476,2.28023 -0.47802,0.90434 -0.71702,1.73979 -0.71702,2.50632 z"
       style="stroke-width:0.26458332" />
  </g>
</svg>
