<?xml version="1.0" encoding="UTF-8" standalone="no"?>
<!-- Created with Inkscape (http://www.inkscape.org/) -->

<svg
   xmlns:dc="http://purl.org/dc/elements/1.1/"
   xmlns:cc="http://creativecommons.org/ns#"
   xmlns:rdf="http://www.w3.org/1999/02/22-rdf-syntax-ns#"
   xmlns:svg="http://www.w3.org/2000/svg"
   xmlns="http://www.w3.org/2000/svg"
   xmlns:sodipodi="http://sodipodi.sourceforge.net/DTD/sodipodi-0.dtd"
   xmlns:inkscape="http://www.inkscape.org/namespaces/inkscape"
   width="23.44817mm"
   height="22.931334mm"
   viewBox="0 0 23.44817 22.931334"
   version="1.1"
   id="svg4559"
   inkscape:version="0.92.2 (5c3e80d, 2017-08-06)"
   sodipodi:docname="kos.svg">
  <defs
     id="defs4553" />
  <sodipodi:namedview
     id="base"
     pagecolor="#ffffff"
     bordercolor="#666666"
     borderopacity="1.0"
     inkscape:pageopacity="0.0"
     inkscape:pageshadow="2"
     inkscape:zoom="0.35"
     inkscape:cx="-281.40279"
     inkscape:cy="-159.52234"
     inkscape:document-units="mm"
     inkscape:current-layer="layer1"
     showgrid="false"
     inkscape:window-width="1920"
     inkscape:window-height="1017"
     inkscape:window-x="-8"
     inkscape:window-y="-8"
     inkscape:window-maximized="1" />
  <metadata
     id="metadata4556">
    <rdf:RDF>
      <cc:Work
         rdf:about="">
        <dc:format>image/svg+xml</dc:format>
        <dc:type
           rdf:resource="http://purl.org/dc/dcmitype/StillImage" />
        <dc:title></dc:title>
      </cc:Work>
    </rdf:RDF>
  </metadata>
  <g
     inkscape:label="Layer 1"
     inkscape:groupmode="layer"
     id="layer1"
     transform="translate(-47.996155,-83.695046)">
    <path
       inkscape:connector-curvature="0"
       id="path3067"
       d="m 58.292695,89.508503 c -0.38759,-0.172239 -0.86558,-0.415555 -1.43402,-0.729933 -0.56845,-0.314351 -1.13043,-0.62656 -1.68595,-0.936625 -0.55552,-0.310039 -1.04645,-0.570574 -1.47277,-0.781606 -0.42635,-0.210994 -0.80746,-0.355256 -1.14335,-0.432778 -0.31006,-0.06889 -0.6029,-0.103336 -0.87849,-0.103352 -0.67181,1.8e-5 -1.0077,0.301466 -1.0077,0.904346 0,0.189497 0.0215,0.387588 0.0646,0.59428 0.0431,0.206722 0.10765,0.45003 0.19379,0.729933 0.0861,0.279929 0.15933,0.52324 0.21962,0.729932 0.17225,0.620131 0.34451,1.091671 0.51676,1.414648 0.17225,0.323003 0.40264,0.587825 0.69117,0.794517 0.28853,0.206719 0.73422,0.42635 1.33712,0.658866 v 2.855119 c -0.33591,-0.172247 -0.8419,-0.404786 -1.51799,-0.697627 -0.67612,-0.292815 -1.23809,-0.607192 -1.68595,-0.943081 -0.44786,-0.335889 -0.86127,-0.828966 -1.24024,-1.479233 -0.37896,-0.65024 -0.69762,-1.517994 -0.95601,-2.603209 -0.1981,-0.757899 -0.29713,-1.507225 -0.29713,-2.247926 0,-1.205759 0.31221,-2.097193 0.93662,-2.674144 0.62442,-0.57703 1.47064,-0.865558 2.5386,-0.865584 0.34452,2.1e-5 0.70623,0.02586 1.08522,0.07751 0.89572,0.146436 1.67732,0.340228 2.34481,0.581369 0.66749,0.241178 1.27037,0.525409 1.80867,0.852672 0.53829,0.327317 1.1907,0.766551 1.95725,1.317758 h 2.11873 c 0.76653,-0.551207 1.41679,-0.990441 1.95078,-1.317758 0.53398,-0.327263 1.139,-0.611478 1.81514,-0.852672 0.67609,-0.241136 1.4577,-0.434922 2.34482,-0.581369 0.36171,-0.05165 0.72345,-0.07749 1.08522,-0.07751 0.68037,2.1e-5 1.28328,0.122753 1.80866,0.368194 0.52536,0.245483 0.93231,0.630899 1.22087,1.156256 0.2885,0.525383 0.43275,1.197186 0.43278,2.015384 -3e-5,0.740701 -0.0991,1.490027 -0.29713,2.247926 -0.25841,1.076616 -0.57491,1.944344 -0.94956,2.603209 -0.37468,0.658892 -0.78378,1.154113 -1.22733,1.485689 -0.44357,0.331602 -1.00554,0.64381 -1.68595,0.936625 -0.68043,0.292841 -1.18858,0.525383 -1.52445,0.697627 v -2.855119 c 0.61148,-0.232532 1.05934,-0.454316 1.34358,-0.665322 0.28419,-0.210997 0.51028,-0.475826 0.67826,-0.794517 0.16793,-0.318664 0.33803,-0.788061 0.5103,-1.408192 0.31864,-1.033515 0.478,-1.71823 0.478,-2.054145 -2e-5,-0.60288 -0.33591,-0.90432 -1.00769,-0.904346 -0.27564,1.8e-5 -0.56415,0.03447 -0.86559,0.103351 -0.37036,0.08615 -0.81608,0.262708 -1.33712,0.529696 -0.5211,0.267018 -1.27471,0.676116 -2.26084,1.227323 -0.98618,0.551233 -1.70317,0.925883 -2.15103,1.12395 v 17.117745 h -2.85512 z"
       style="stroke-width:0.26458332" />
  </g>
</svg>
