<?xml version="1.0" encoding="UTF-8" standalone="no"?>
<!-- Created with Inkscape (http://www.inkscape.org/) -->

<svg
   xmlns:dc="http://purl.org/dc/elements/1.1/"
   xmlns:cc="http://creativecommons.org/ns#"
   xmlns:rdf="http://www.w3.org/1999/02/22-rdf-syntax-ns#"
   xmlns:svg="http://www.w3.org/2000/svg"
   xmlns="http://www.w3.org/2000/svg"
   xmlns:sodipodi="http://sodipodi.sourceforge.net/DTD/sodipodi-0.dtd"
   xmlns:inkscape="http://www.inkscape.org/namespaces/inkscape"
   width="22.80232mm"
   height="27.543489mm"
   viewBox="0 0 22.80232 27.543489"
   version="1.1"
   id="svg6832"
   inkscape:version="0.92.2 (5c3e80d, 2017-08-06)"
   sodipodi:docname="oroszlan.svg">
  <defs
     id="defs6826" />
  <sodipodi:namedview
     id="base"
     pagecolor="#ffffff"
     bordercolor="#666666"
     borderopacity="1.0"
     inkscape:pageopacity="0.0"
     inkscape:pageshadow="2"
     inkscape:zoom="0.35"
     inkscape:cx="-571.19476"
     inkscape:cy="66.336403"
     inkscape:document-units="mm"
     inkscape:current-layer="layer1"
     showgrid="false"
     inkscape:window-width="1920"
     inkscape:window-height="1017"
     inkscape:window-x="-8"
     inkscape:window-y="-8"
     inkscape:window-maximized="1" />
  <metadata
     id="metadata6829">
    <rdf:RDF>
      <cc:Work
         rdf:about="">
        <dc:format>image/svg+xml</dc:format>
        <dc:type
           rdf:resource="http://purl.org/dc/dcmitype/StillImage" />
        <dc:title></dc:title>
      </cc:Work>
    </rdf:RDF>
  </metadata>
  <g
     inkscape:label="Layer 1"
     inkscape:groupmode="layer"
     id="layer1"
     transform="translate(-124.67028,-138.84135)">
    <path
       inkscape:connector-curvature="0"
       id="path3073"
       d="m 129.74745,153.71145 c -0.48231,10e-6 -0.94957,0.14212 -1.40171,0.42633 -0.45218,0.28421 -0.81606,0.65026 -1.09168,1.09812 -0.27561,0.44786 -0.41341,0.90866 -0.41341,1.38235 0,0.4823 0.1378,0.94739 0.41341,1.39525 0.27559,0.44786 0.6395,0.81391 1.09168,1.09813 0.45217,0.28421 0.9194,0.42632 1.40171,0.42632 0.4823,0 0.94953,-0.14211 1.4017,-0.42632 0.45218,-0.28422 0.81606,-0.65027 1.09168,-1.09813 0.27559,-0.44786 0.41341,-0.91295 0.41341,-1.39525 -10e-6,-0.47371 -0.13782,-0.93449 -0.41341,-1.38235 -0.27562,-0.44786 -0.6395,-0.81391 -1.09168,-1.09812 -0.45217,-0.28422 -0.91942,-0.42633 -1.4017,-0.42633 z m 5.12894,2.90672 c -10e-6,0.6804 -0.13351,1.32635 -0.4005,1.93786 -0.26701,0.6115 -0.63521,1.15194 -1.10458,1.62134 -0.4694,0.46939 -1.01632,0.83973 -1.64073,1.11104 -0.62445,0.2713 -1.28546,0.40695 -1.98308,0.40695 -0.89572,0 -1.73548,-0.23039 -2.51923,-0.69117 -0.78378,-0.46077 -1.40602,-1.08305 -1.86682,-1.86682 -0.46077,-0.78375 -0.69117,-1.62351 -0.69117,-2.51923 -1e-5,-0.68903 0.1421,-1.34572 0.42632,-1.97017 0.28421,-0.62441 0.67395,-1.17348 1.16917,-1.64719 0.49522,-0.47368 1.05505,-0.84404 1.67949,-1.11104 0.62442,-0.26699 1.28545,-0.40047 1.98308,-0.4005 0.44786,1e-5 0.87418,0.0517 1.279,0.15503 -0.33592,-0.69762 -0.60074,-1.24883 -0.79452,-1.65364 -0.19379,-0.40479 -0.41987,-0.89572 -0.67826,-1.47278 -0.25839,-0.57703 -0.4608,-1.11749 -0.60719,-1.62134 -0.14643,-0.50382 -0.21963,-0.94953 -0.21963,-1.33712 0,-0.0947 0.0172,-0.27128 0.0517,-0.5297 0.73208,-4.12538 3.11362,-6.18834 7.14428,-6.18834 1.47278,2e-5 2.77548,0.0775 3.90816,0.23254 1.13255,0.15506 2.15747,0.47371 3.07472,0.95602 0.91723,0.48234 1.64931,1.21873 2.19626,2.20917 0.54689,0.99049 0.82034,2.291 0.82036,3.90154 -0.0345,1.53308 -0.2584,2.8702 -0.6718,4.01135 -0.41344,1.1412 -0.9216,2.18766 -1.52445,3.13928 -0.60291,0.95171 -1.22949,1.9594 -1.87973,3.02313 -0.65029,1.06368 -1.09167,2.08214 -1.32421,3.05541 -0.26702,1.12826 -0.4005,1.99385 -0.4005,2.59673 -2e-5,0.86989 0.27559,1.41679 0.82682,1.64073 0.43061,0.17225 0.82679,0.25838 1.18856,0.25839 0.31866,-1e-5 0.61365,-0.0603 0.88495,-0.18087 0.27128,-0.12059 0.55335,-0.30361 0.84619,-0.54907 0.29282,-0.24546 0.57272,-0.50816 0.83974,-0.78806 0.26696,-0.27993 0.55549,-0.58351 0.86558,-0.9108 l 1.71823,1.8991 c -1.04217,1.09381 -1.99602,1.87542 -2.86147,2.34482 -0.86561,0.46939 -1.69889,0.70408 -2.49983,0.70408 -0.67181,-1e-5 -1.35224,-0.14212 -2.04121,-0.42632 -1.6106,-0.61151 -2.41589,-1.98525 -2.41589,-4.12115 -1e-5,-0.91295 0.16794,-2.02399 0.50385,-3.33322 0.21531,-0.82683 0.52104,-1.61489 0.91726,-2.36419 0.39616,-0.7493 1.00983,-1.8302 1.84097,-3.24273 0.83111,-1.41248 1.44261,-2.55797 1.83451,-3.43641 0.39185,-0.8785 0.60934,-1.71823 0.65241,-2.51923 0.0172,-0.18085 0.0258,-0.44786 0.0259,-0.80097 -2e-5,-1.32636 -0.26487,-2.31466 -0.79451,-2.96492 -0.5297,-0.65024 -1.28548,-1.07874 -2.2673,-1.28546 -0.98187,-0.20669 -2.40297,-0.3574 -4.26323,-0.45217 -0.99909,2e-5 -1.81083,0.15074 -2.43525,0.45217 -0.62444,0.30147 -1.09167,0.72779 -1.40171,1.279 -0.31007,0.55123 -0.51247,1.22732 -0.60719,2.0283 -1e-5,0.6115 0.12488,1.25745 0.37465,1.93786 0.24976,0.68043 0.64164,1.61705 1.17565,2.80987 0.53398,1.19288 0.94953,2.26087 1.24669,3.20384 0.29712,0.94311 0.44569,1.85388 0.44571,2.73235 -1e-5,0.33592 -0.009,0.58137 -0.0258,0.73639 z"
       style="stroke-width:0.26458332" />
  </g>
</svg>
