<?xml version="1.0" encoding="UTF-8" standalone="no"?>
<!-- Created with Inkscape (http://www.inkscape.org/) -->

<svg
   xmlns:dc="http://purl.org/dc/elements/1.1/"
   xmlns:cc="http://creativecommons.org/ns#"
   xmlns:rdf="http://www.w3.org/1999/02/22-rdf-syntax-ns#"
   xmlns:svg="http://www.w3.org/2000/svg"
   xmlns="http://www.w3.org/2000/svg"
   xmlns:sodipodi="http://sodipodi.sourceforge.net/DTD/sodipodi-0.dtd"
   xmlns:inkscape="http://www.inkscape.org/namespaces/inkscape"
   width="22.853939mm"
   height="20.21858mm"
   viewBox="0 0 22.853939 20.21858"
   version="1.1"
   id="svg6266"
   inkscape:version="0.92.2 (5c3e80d, 2017-08-06)"
   sodipodi:docname="rak.svg">
  <defs
     id="defs6260" />
  <sodipodi:namedview
     id="base"
     pagecolor="#ffffff"
     bordercolor="#666666"
     borderopacity="1.0"
     inkscape:pageopacity="0.0"
     inkscape:pageshadow="2"
     inkscape:zoom="0.35"
     inkscape:cx="-565.38287"
     inkscape:cy="21.065487"
     inkscape:document-units="mm"
     inkscape:current-layer="layer1"
     showgrid="false"
     inkscape:window-width="1920"
     inkscape:window-height="1017"
     inkscape:window-x="-8"
     inkscape:window-y="-8"
     inkscape:window-maximized="1" />
  <metadata
     id="metadata6263">
    <rdf:RDF>
      <cc:Work
         rdf:about="">
        <dc:format>image/svg+xml</dc:format>
        <dc:type
           rdf:resource="http://purl.org/dc/dcmitype/StillImage" />
        <dc:title></dc:title>
      </cc:Work>
    </rdf:RDF>
  </metadata>
  <g
     inkscape:label="Layer 1"
     inkscape:groupmode="layer"
     id="layer1"
     transform="translate(-123.13255,-134.18833)">
    <path
       inkscape:connector-curvature="0"
       id="path3082"
       d="m 125.98638,140.49213 c -1e-5,0.46511 0.13995,0.91726 0.41986,1.35652 0.27991,0.43926 0.6395,0.79883 1.07876,1.07876 0.43924,0.27993 0.89141,0.41989 1.35652,0.41987 0.48231,10e-6 0.94094,-0.13995 1.37589,-0.41987 0.43492,-0.2799 0.7902,-0.64164 1.06582,-1.08522 0.27559,-0.44354 0.41341,-0.89355 0.41341,-1.35003 -1e-5,-0.47369 -0.13781,-0.93017 -0.41341,-1.36943 -0.27562,-0.43924 -0.63304,-0.79666 -1.07228,-1.07228 -0.43926,-0.27559 -0.89572,-0.41339 -1.36943,-0.41341 -0.45648,10e-6 -0.90649,0.13782 -1.35004,0.41341 -0.44357,0.27562 -0.80528,0.6309 -1.08521,1.06582 -0.27993,0.43495 -0.41987,0.89358 -0.41987,1.37589 z m 17.14367,7.62238 c -2e-5,-0.46508 -0.13782,-0.9194 -0.41341,-1.36297 -0.27562,-0.44355 -0.6309,-0.80529 -1.06582,-1.08522 -0.43497,-0.2799 -0.8936,-0.41987 -1.37589,-0.41987 -0.48233,1e-5 -0.94096,0.13997 -1.37588,0.41987 -0.43495,0.27993 -0.79023,0.64167 -1.06582,1.08522 -0.27562,0.44354 -0.41344,0.89789 -0.41341,1.36297 -2e-5,0.45649 0.13778,0.90649 0.41341,1.35004 0.27559,0.44355 0.63087,0.80528 1.06582,1.08521 0.43492,0.27993 0.89355,0.41987 1.37588,0.41987 0.48229,0 0.94092,-0.13995 1.37589,-0.41987 0.43492,-0.2799 0.7902,-0.64164 1.06582,-1.08521 0.27559,-0.44355 0.41339,-0.89358 0.41341,-1.35004 z m -9.86896,-10.98047 c 0.86988,1.02494 1.30482,2.14458 1.30482,3.35888 -1e-5,0.68903 -0.15719,1.37375 -0.47154,2.05415 -0.31437,0.6804 -0.75147,1.30053 -1.3113,1.86034 -0.55983,0.55983 -1.1821,0.99909 -1.86682,1.31776 -0.68471,0.31869 -1.37589,0.47802 -2.07351,0.47799 -0.99047,1e-5 -1.92281,-0.27345 -2.79691,-0.82037 -0.87419,-0.54689 -1.57829,-1.26391 -2.11228,-2.15103 -0.53398,-0.8871 -0.801,-1.80004 -0.801,-2.73897 0,-1.81726 0.78806,-3.31576 2.36421,-4.4958 1.57613,-1.17993 4.59926,-1.78281 9.06913,-1.80866 1.85171,2e-5 3.47742,0.14643 4.87706,0.43926 1.39954,0.29284 2.63332,0.71919 3.70126,1.27899 1.06796,0.55986 2.01536,1.24026 2.84215,2.04121 v 2.85512 c -0.62875,-0.59425 -1.28979,-1.11749 -1.98308,-1.56967 -0.69334,-0.45214 -1.46203,-0.84187 -2.30605,-1.16916 -0.84408,-0.32727 -1.78716,-0.57703 -2.82919,-0.7493 -1.04217,-0.17224 -2.21348,-0.25837 -3.51393,-0.25839 -0.64596,2e-5 -1.34361,0.0259 -2.09291,0.0775 z m 12.7254,10.98127 c -2e-5,0.81822 -0.14428,1.58474 -0.43277,2.29959 -0.28856,0.71486 -0.83117,1.36944 -1.62783,1.96372 -0.79671,0.59428 -1.95942,1.07876 -3.48826,1.45341 -1.52879,0.37465 -3.48615,0.56628 -5.87164,0.57488 -1.38665,0 -2.66356,-0.0883 -3.83063,-0.26485 -1.16703,-0.17656 -2.19843,-0.42201 -3.09404,-0.73638 -0.89572,-0.31438 -1.70963,-0.69763 -2.44171,-1.1498 -0.73207,-0.45218 -1.4211,-0.98833 -2.06706,-1.60843 v -2.85512 c 0.8182,0.77515 1.72472,1.4405 2.71939,1.99599 0.99475,0.55552 2.14455,0.98832 3.44937,1.29836 1.30482,0.31007 2.79268,0.46509 4.46352,0.46509 0.65456,0 1.35218,-0.0258 2.09291,-0.0775 -0.39619,-0.48231 -0.71056,-1.01846 -0.94311,-1.60843 -0.23255,-0.58997 -0.34882,-1.17348 -0.34882,-1.75054 -2e-5,-0.69763 0.15932,-1.39094 0.47799,-2.07997 0.31867,-0.689 0.75359,-1.30913 1.30482,-1.86034 0.55121,-0.5512 1.17131,-0.98615 1.86034,-1.30481 0.689,-0.31867 1.37803,-0.478 2.06706,-0.478 0.73205,1e-5 1.45124,0.15935 2.15749,0.478 0.70623,0.31869 1.32419,0.74932 1.85388,1.2919 0.52967,0.54261 0.94523,1.16057 1.24669,1.85389 0.30142,0.69334 0.45215,1.39311 0.45218,2.09936 z"
       style="stroke-width:0.26458332" />
  </g>
</svg>
