<?xml version="1.0" encoding="UTF-8" standalone="no"?>
<!-- Created with Inkscape (http://www.inkscape.org/) -->

<svg
   xmlns:dc="http://purl.org/dc/elements/1.1/"
   xmlns:cc="http://creativecommons.org/ns#"
   xmlns:rdf="http://www.w3.org/1999/02/22-rdf-syntax-ns#"
   xmlns:svg="http://www.w3.org/2000/svg"
   xmlns="http://www.w3.org/2000/svg"
   xmlns:sodipodi="http://sodipodi.sourceforge.net/DTD/sodipodi-0.dtd"
   xmlns:inkscape="http://www.inkscape.org/namespaces/inkscape"
   width="21.432501mm"
   height="27.621071mm"
   viewBox="0 0 21.432501 27.621071"
   version="1.1"
   id="svg7398"
   inkscape:version="0.92.2 (5c3e80d, 2017-08-06)"
   sodipodi:docname="szuz.svg">
  <defs
     id="defs7392" />
  <sodipodi:namedview
     id="base"
     pagecolor="#ffffff"
     bordercolor="#666666"
     borderopacity="1.0"
     inkscape:pageopacity="0.0"
     inkscape:pageshadow="2"
     inkscape:zoom="0.35"
     inkscape:cx="-562.35478"
     inkscape:cy="-79.231269"
     inkscape:document-units="mm"
     inkscape:current-layer="layer1"
     showgrid="false"
     inkscape:window-width="1920"
     inkscape:window-height="1017"
     inkscape:window-x="-8"
     inkscape:window-y="-8"
     inkscape:window-maximized="1" />
  <metadata
     id="metadata7395">
    <rdf:RDF>
      <cc:Work
         rdf:about="">
        <dc:format>image/svg+xml</dc:format>
        <dc:type
           rdf:resource="http://purl.org/dc/dcmitype/StillImage" />
        <dc:title></dc:title>
      </cc:Work>
    </rdf:RDF>
  </metadata>
  <g
     inkscape:label="Layer 1"
     inkscape:groupmode="layer"
     id="layer1"
     transform="translate(-122.33137,-100.24899)">
    <path
       inkscape:connector-curvature="0"
       id="path3076"
       d="m 139.26836,124.53684 c -0.72348,1.24023 -1.56324,2.35127 -2.51923,3.33322 l -2.04121,-2.04121 c 1.17131,-0.8096 2.19623,-2.18334 3.07472,-4.12115 -0.90434,-2.1015 -1.59551,-4.47648 -2.07351,-7.12496 -0.47802,-2.64848 -0.81177,-5.52291 -1.00124,-8.62357 -1e-5,-1.15408 -0.14858,-1.91846 -0.44571,-2.29314 -0.29716,-0.37465 -0.67826,-0.56198 -1.14335,-0.56198 -0.7321,2e-5 -1.20578,0.24764 -1.4211,0.74285 -0.21533,0.49525 -0.32298,1.19933 -0.32298,2.11227 v 17.14368 h -2.85512 v -17.14368 c -1e-5,-1.16271 -0.15073,-1.92923 -0.45217,-2.2996 -0.30147,-0.37033 -0.6804,-0.55549 -1.13689,-0.55552 -1.16274,2e-5 -1.74408,0.95174 -1.74408,2.85512 v 17.14368 h -2.85512 v -17.14368 c 0,-0.96461 0.18948,-1.88616 0.56843,-2.76463 0.37896,-0.87847 0.91726,-1.58903 1.61489,-2.13164 0.69762,-0.54258 1.50291,-0.81389 2.41588,-0.81391 1.25746,2e-5 2.27375,0.49525 3.04879,1.48569 0.86128,-0.99044 1.9077,-1.48569 3.13929,-1.48569 1.25746,2e-5 2.27375,0.49525 3.04879,1.48569 0.86127,-0.99044 1.91201,-1.48569 3.15225,-1.48569 0.91291,2e-5 1.70746,0.27133 2.38357,0.81391 0.67609,0.54263 1.18854,1.25317 1.53739,2.13164 0.3488,0.87852 0.52319,1.80007 0.52322,2.76463 -0.0775,1.40388 -0.19597,2.80776 -0.35529,4.21164 -0.15936,1.40388 -0.35745,2.75617 -0.59428,4.05659 -0.23687,1.30054 -0.53401,2.57736 -0.8914,3.83064 -0.35746,1.25315 -0.78592,2.4697 -1.28546,3.64966 0.93877,1.94649 1.98091,3.32026 3.12632,4.12115 l -2.04121,2.04121 c -0.97327,-0.99909 -1.79146,-2.11013 -2.45464,-3.33322 z m -0.0517,-6.84715 c 0.31004,-1.15412 0.58134,-2.37927 0.81391,-3.67559 0.23252,-1.29623 0.41984,-2.61613 0.56197,-3.95976 0.1421,-1.34358 0.2476,-2.7088 0.31652,-4.09548 -1e-5,-0.8871 -0.10552,-1.58473 -0.31652,-2.09291 -0.21103,-0.50813 -0.63521,-0.76221 -1.27254,-0.76224 -0.7321,2e-5 -1.20581,0.24763 -1.4211,0.74284 -0.21534,0.49525 -0.323,1.19933 -0.32298,2.11228 0.21531,4.34948 0.76221,8.2595 1.64074,11.73057 z"
       style="stroke-width:0.26458332" />
  </g>
</svg>
