<?xml version="1.0" encoding="UTF-8"?>
<svg width="141.46mm" height="14.633mm" version="1.1" viewBox="0 0 141.46 14.633" xmlns="http://www.w3.org/2000/svg" xmlns:cc="http://creativecommons.org/ns#" xmlns:dc="http://purl.org/dc/elements/1.1/" xmlns:rdf="http://www.w3.org/1999/02/22-rdf-syntax-ns#">
<metadata>
<rdf:RDF>
<cc:Work rdf:about="">
<dc:format>image/svg+xml</dc:format>
<dc:type rdf:resource="http://purl.org/dc/dcmitype/StillImage"/>
<dc:title/>
</cc:Work>
</rdf:RDF>
</metadata>
<g transform="translate(-26.034 -152.86)">
<path d="m116.21 152.86c-1.9936 0-3.6206 0.66532-4.881 1.9965-1.2604 1.3248-1.8907 3.161-1.8907 5.5083 0 1.2411 0.2701 2.418 0.81029 3.5305s1.3347 1.9901 2.3829 2.6332c1.0482 0.64307 2.2379 0.96464 3.5691 0.96464 1.2283 0 2.373-0.28939 3.4341-0.86817 1.0611-0.58522 1.8808-1.4435 2.4595-2.5753 0.57878-1.1318 0.86817-2.4151 0.86817-3.8491 0-1.4148-0.27653-2.6782-0.82958-3.7907-0.54662-1.119-1.344-1.9906-2.3923-2.6144-1.0482-0.6238-2.2251-0.93542-3.5305-0.93542zm-90.172 0.25081v1.668h2.5174v5.7e-4h7.7076v-1.6685h-10.225zm21.166 0v14.141h8.836v-1.6691h-6.9646v-12.472zm19.198 0v1.6674h2.3482v1e-3h7.8769v-1.6685h-10.225zm21.257 0 5.2834 8.2781-0.01984-9e-3 3.9252 5.8721h1.9199v-14.141h-1.7942v11.103l-7.4276-11.103h-1.8868zm47.962 0v1.5627h4.2052c1.0482 0 1.8135 0.21516 2.2958 0.64603 0.48874 0.43086 0.73311 0.98098 0.73311 1.6498 0 0.45659-0.12512 0.88103-0.37593 1.2733-0.2508 0.38585-0.61736 0.66881-1.0997 0.84887-0.48232 0.17364-1.1511 0.26018-2.0064 0.26018h-3.7521v1.6206h1.9c0.48232 0 0.82958 0.0229 1.0418 0.0678 0.28939 0.0708 0.57234 0.19587 0.84887 0.37592 0.28296 0.18009 0.60101 0.49519 0.9547 0.94536 0.3537 0.45015 0.80386 1.0996 1.3505 1.9486l1.8714 2.9424h2.3537l-2.4595-3.8491c-0.48875-0.75243-1.0067-1.3791-1.5533-1.8808-0.25723-0.23151-0.63316-0.46651-1.1283-0.70445 1.3569-0.1865 2.3601-0.62379 3.0096-1.3119s0.974-1.5335 0.974-2.5367c0-0.77813-0.19587-1.489-0.58815-2.1321-0.39228-0.64308-0.91667-1.0898-1.5726-1.3406-0.65594-0.25724-1.6141-0.38585-2.8746-0.38585zm24.069 0-5.4306 14.141h1.9871l1.329-3.6667-0.022 4e-3 1.1829-3.2555 0.0132 0.016 1.1432-3.0526c0.32797-0.89389 0.58171-1.7942 0.76178-2.701 0.21865 0.76527 0.55305 1.7428 1.0032 2.9325l1.2744 3.3817 1.1135 2.8917-0.0132-3e-3 1.3295 3.4523h2.1321l-5.7878-14.141h-2.0164zm-43.47 1.3598c0.93248 0 1.7714 0.23794 2.5174 0.71382 0.75241 0.46945 1.3218 1.1353 1.7077 1.997 0.39228 0.8553 0.58815 1.8585 0.58815 3.0096 0 1.8199-0.45659 3.2248-1.3698 4.2152-0.90675 0.99035-2.0643 1.4855-3.4727 1.4855-1.3826 0-2.5338-0.48873-3.4534-1.4662-0.91318-0.98391-1.3698-2.328-1.3698-4.0321 0-2.1286 0.47588-3.6463 1.4276-4.553 0.9582-0.91317 2.1-1.3698 3.4247-1.3698zm-90.182 4.617v8.1646h10.553v-1.6691h-8.6816v-4.8132h7.8228v-1.6592h-7.8228v-0.0231h-1.8714zm42.712 0.0231v5.5e-4h-2.3482v8.1409h10.553v-1.6691h-8.6816v-4.8132h7.8234v-1.6592h-7.3466zm18.876 2.5257v5.6158h1.7942v-5.6158z"/>
</g>
</svg>
