<svg xmlns="http://www.w3.org/2000/svg" width="141" height="26" viewBox="0 0 501.2 92.5"><style>.a{-inkscape-font-specification:'Bookshelf Symbol 7, Normal';font-family:'Bookshelf Symbol 7';letter-spacing:0px;line-height:0%;stroke-width:1px;text-align:start;word-spacing:0px;}.b{font-size:20px;line-height:1;}</style><g transform="translate(-15.961771 -931.10857)"><path d="m335.5 971.8c-7.1 0-12.8 2.4-17.3 7.1-4.5 4.7-6.7 11.2-6.7 19.5 0 4.4 1 8.6 2.9 12.5 1.9 3.9 4.7 7.1 8.4 9.3 3.7 2.3 7.9 3.4 12.6 3.4 4.4 0 8.4-1 12.2-3.1 3.8-2.1 6.7-5.1 8.7-9.1 2.1-4 3.1-8.6 3.1-13.6 0-5-1-9.5-2.9-13.4-1.9-4-4.8-7.1-8.5-9.3-3.7-2.2-7.9-3.3-12.5-3.3zm-319.5 0.9v5.9h8.9v0h27.3v-5.9H16Zm75 0v50.1h31.3v-5.9H97.6v-44.2zm68 0v5.9h8.3v0h27.9v-5.9h-36.2zm75.3 0 18.7 29.3-0.1 0 13.9 20.8h6.8v-50.1h-6.4v39.3l-26.3-39.3h-6.7zm169.9 0v5.5h14.9c3.7 0 6.4 0.8 8.1 2.3 1.7 1.5 2.6 3.5 2.6 5.8 0 1.6-0.4 3.1-1.3 4.5-0.9 1.4-2.2 2.4-3.9 3-1.7 0.6-4.1 0.9-7.1 0.9h-13.3v5.7h6.7c1.7 0 2.9 0.1 3.7 0.2 1 0.3 2 0.7 3 1.3 1 0.6 2.1 1.8 3.4 3.3 1.3 1.6 2.8 3.9 4.8 6.9l6.6 10.4h8.3l-8.7-13.6c-1.7-2.7-3.6-4.9-5.5-6.7-0.9-0.8-2.2-1.7-4-2.5 4.8-0.7 8.4-2.2 10.7-4.6 2.3-2.4 3.5-5.4 3.5-9 0-2.8-0.7-5.3-2.1-7.6-1.4-2.3-3.2-3.9-5.6-4.7-2.3-0.9-5.7-1.4-10.2-1.4zm85.3 0-19.2 50.1h7l4.7-13-0.1 0 4.2-11.5 0 0.1 4.1-10.8c1.2-3.2 2.1-6.4 2.7-9.6 0.8 2.7 2 6.2 3.6 10.4l4.5 12 3.9 10.2 0 0 4.7 12.2h7.6l-20.5-50.1h-7.1zm-154 4.8c3.3 0 6.3 0.8 8.9 2.5 2.7 1.7 4.7 4 6.1 7.1 1.4 3 2.1 6.6 2.1 10.7 0 6.4-1.6 11.4-4.9 14.9-3.2 3.5-7.3 5.3-12.3 5.3-4.9 0-9-1.7-12.2-5.2-3.2-3.5-4.9-8.2-4.9-14.3 0-7.5 1.7-12.9 5.1-16.1 3.4-3.2 7.4-4.9 12.1-4.9zM16 993.9v28.9h37.4v-5.9H22.6v-17.1h27.7v-5.9H22.6v-0.1h-6.6zm151.3 0.1v0h-8.3v28.8h37.4v-5.9h-30.8v-17.1h27.7v-5.9h-26zm66.9 8.9v19.9h6.4v-19.9z" style="-inkscape-font-specification:'Bookshelf Symbol 7, Normal';font-family:'Bookshelf Symbol 7';font-size:20px;letter-spacing:0px;line-height:100%;stroke-width:1px;text-align:start;word-spacing:0px"/><rect width="7.5" height="15.3" x="320.9" y="249.7" style="fill:#fff;paint-order:markers stroke fill;stroke-width:5"/><text x="177.8" y="392.7" class="a"><tspan x="177.8" y="392.7" class="b"/></text><text x="326.4" y="396.6" class="a"><tspan x="326.4" y="396.6" class="b"/></text><g transform="matrix(0.41946852 0 0 0.41946852 201.67368 911.47079)"><path d="m284.4 49.2c-15.8 3.9-32 11.7-43.4 19.2-11.4 7.5-41.1 26.5-47.9 32.5-6.6 5.8-14.4 7.9-17.8 15-1.3 2.8 8.9 11.1 10.9 12 5.2 2.3 13.7-1.7 17.5-2 12.5-0.8 25.4-2.3 38.1 5.5-2.3 2.1 1.4-0.2-3.4 18.5-1.7 6.6-5.4 23.7-0.8 27 4.5 3.2 7.3-9.4 11.8-7.5 0 0 0 0 0 0 0 0 0 0 0 0 0 0 0 0 0 0 0 0 0 0 0 0 0 0 0 0 0.1 0 0 0 0 0 0 0 0 0 0.1 0 0.1 0l0-0.1c2.1-0.5 18.7-7.1 33.8-4.4 8.5 1.5 22.1-2.7 29.9-4.9 12.4-3.5 29.8-6.6 40.9-6.7 8.1-0.1 15.5-4.3 23.3-4.8 4.6-0.3 0.3-13.7 0.2-15.1-0.5-6.8-9.9-17.2-14.7-26.5-4.8-9.3-13-21.1-21.9-30.3-8.9-9.2-21-21.2-29.5-24.9-8.5-3.7-10.1-6.9-27.2-2.7z" style="fill:#d00000;stroke-width:0.8;stroke:#000"/><path d="m246.7 81.9c-10.2 2.2-19 31.7-31.6 36.8-8.3 3.3-30.8 8.4-28.8 9.3 5.2 2.3 13.7-1.7 17.5-2 12.5-0.8 25.4-2.3 38.1 5.5-2.3 2.1 1.4-0.2-3.4 18.5-1.7 6.6-5.4 23.7-0.8 27 4.5 3.2 7.3-9.4 11.8-7.5 0 0 0 0 0 0 0 0 0 0 0 0 0 0 0 0 0 0 0 0 0 0 0 0 0 0 0 0 0.1 0 0 0 0 0 0 0 0 0 0.1 0 0.1 0l0-0.1c2.1-0.5 18.7-7.1 33.8-4.4 8.5 1.5 22.1-2.7 29.9-4.9 12.4-3.5 29.8-6.6 40.9-6.7 8.1-0.1 15.5-4.3 23.3-4.8 4.6-0.3-28.7 2.3-15.4-6.4 5.9-3.8-59 8-83.9-17.6-24.7-25.3-21-45.2-31.5-43z" style="fill:#0e0000;opacity:0.1"/><g stroke="#000"><path d="m176.4 112.9c2 1.2 15.4 16.4 17 15.4 0.2-1.7-1.4-2.3-2.5-2.5 1.5-1.7 1.7-3.4-0.8-3.6-2.8-0.4-5.9-0.8-2.9-3.5 1.4-1.5-0.1-4.3-1-5.7-2.3-1.1-4-3.1-4.9-4.4" style="opacity:0.3;stroke-width:0.8"/><g stroke-width="0.6"><path d="m358.3 145.7c-4.2-1.3-9.4-2.9-13.1-2.7-2.5-1.9-4.5 0.4-6.7 1.1-0.4-3.7-6.5 1.6-9.2 1.6-1.9 1-0.6-2.9-4-1.4-4.2 0.4-6.9 0.6-10 1.9-0.8 4-7.6 6.3-8.6 1.9-3.7 1.5-10.6 4.3-10.6-0.3-5.9 4.1-6.1 7.9-11.9 9.9 0.5-3.6-12.6-5.5-14.4-1.8-3.6 1.3 0.7-4.7-4.4-3.1-5.8-1.5-2.4 9.1-14.4 4.7-6.6-0.2-3 8.4-7.3 12.1-1.2 3.8-6.2-1.3-8.3-1 0.5 6 1.9 4 0.4 8.1-0.9 5.1-2.1 7.7 4.2 8.8 2-2.5-0.1-1.4 0.4 3.1 3.6-1 8.4-6.4 7.9-0.8 2.5-3.4 10.3-5.1 10.2-8.8 3.9 0.4 8.4 4.3 11.7-0.5 3.3-3.6 8.2-5.2 8.2-2.5 4.1 3.4 4.5 2.7 8.7 1.9-1.1-4.4 9.9-0.3 4.1-4.7 2.3-2.1 8.5-3.3 12.1-2.6 3.2 4.2 12.9 4.5 14.4-0.9 0.3-4.2 7.7-5.7 10.4-2.8 4.8-3.8 12.4 1.7 16.5-1.2-3.7-4.3 5.2-7.2 6.9-3.8 3.3-1.6 6.3-7.3 9.9-3.2 4.1-1.2 9.2-2.9 12.7-4.2 2.6 3.9 9.4-0.1 6.5-4.8-1.6-3.4 5.2 1.7 3.4-2.6-2.1-4.6-5.1-11-8.7-10.8-5-1.1-7.9 1.9-8.1 6.1-0.1-3.1-5.9-0.1-9 1l-1.7 0.4-2-1.3" opacity="0.3"/><path d="m361.1 146.8c-4.2-1.3-8.1-1.5-11.8-1.3-2.5-1.9-5.6-1.3-7.8-0.7-0.4-3.7-5.4 3.3-8.1 3.4-1.9 1-0.6-2.9-4-1.4-4.2 0.4-9.2-2-12.3-0.8-0.8 4-7.6 6.3-8.6 1.9-3.7 1.5-8.3 6.9-8.4 2.3-7-0.3-9.9 5.9-15.7 7.9 0.5-3.6-8.8-3.5-10.5 0.3-3.6 1.3-1-6.8-6.1-5.1-5.8-1.5-5.7 8.9-12.7 6.8-6.6-0.2-5.7 5.7-10.1 9.4-1.2 3.8-3.5 1.4-5.5 1.7 3.4 4.3-10.3 3.4-6.3 10-0.9 5.1 0.5 8.8 6.8 9.9 2-2.5 4-4.5 4.4 0.1 3.6-1 8.4-6.4 7.9-0.8 2.5-3.4 10.3-5.1 10.2-8.8 3.9 0.4 8.4 4.3 11.7-0.5 3.3-3.6 3.9-0.7 3.9 2.1 4.1 3.4 8.7-1.8 13-2.7-1.1-4.4 9.9-0.3 4.1-4.7 2.3-2.1 8.5-3.3 12.1-2.6 3.2 2.7 12.9 4.5 14.4-0.9 0.3-4.2 7.7-5.7 10.4-2.8 4.8-3.8 12.4 1.7 16.5-1.2-3.7-4.3 5.2-7.2 6.9-3.8 3.3-1.6 6.3-7.3 9.9-3.2 4.1-1.2 9.2-2.9 12.7-4.2 2.6 3.9 9.4-0.1 6.5-4.8-1.6-3.4 5.2 1.7 3.4-2.6 0-4.9-2-12.4-8.7-10.8-5-1.1-7.9 1.9-8.1 6.1-0.1-3.1-7.9-2-11-0.9l-1 0.5-0.7 0.5" fill="#fff"/></g><path d="m240.3 141.3c1.8-20.6 13.4-30 11.3-46.6-1.2-9.8-11-2.4-7.8 6.8" style="fill:none;stroke-width:0.8"/></g><path d="m245 169.5c-1.2 3.8-3.5 1.4-5.5 1.7 3.4 4.3-10.3 3.4-6.3 10-0.9 5.1 0.5 8.8 6.8 9.9 2-2.5 4-4.5 4.4 0.1 3.6-1 8.4-6.4 7.9-0.8 2.5-3.4 10.3-5.1 10.2-8.8 3.9 0.4 8.2 3.7 11.5-1.1 3.3-3.6 4.1 0 4.1 2.7 4.1 3.4 8.7-1.8 13-2.7-1.1-4.4 5-0.8 4.1-4.7-0.6-2.6 18.9-1.8 16.1-4.3-8.4-7.5-21.5 3.8-23.4 3.1-1.9-0.7-4-0.3-1.3-1.4 2.6-1.1-3.8 0.7-9.1-1-5.4-1.7-9.3 0.5-9.6 4.7-4-2.3-4.3 0.3-10.6 1.9 4-5.3-7.1-1.4-7.1-1.4 0 0 1.9-5.8-1.5-5 1.9-3-0.2-3.9-0.2-3.9 0 0 1-2.6-3.4 1z" style="opacity:0.1;stroke-width:0.7"/><path d="m179.2 108.6c-0.7-1.2-3-1.5-3.3-2.5 0.5-1.2-1.5-0.3-1.9-1-2.4 1.7-5.6 2.5-7.4 4.9 0.9-0.2 0.9-1.4-0.1-0.5-1.9 0.9-3.8 2.4-3 4.5 0.2 1.1-1.4 2 0.5 2.3-0.2 1.8-3.2 1.7-3.2 3.2 0.6 1.7 0.4 3.5-1.2 4.6-1.5 1.3-0.9 3.2-0.8 4.7-0.8 1-1.2 2-0.2 3 0.2 1.8 1.9 3 1.9 4.8 0.7 1 2.1 0.9 2.8 2 2.1 0.2 2.2 2.8 4.2 3.1 1.7 0.5 3.7 0.2 5.3 0.5 1.3 0.9 2.7 1.6 4.3 1.8 2 1.1 2.7-1.7 3.9-2.6 0.1-1.4 1.2-1.5 2-0.3 1.7 1.1 3.5-0.8 4.8-1.7 1.2-1.2 2.6-2.2 4-3.3 1.9-2 2.6-4.8 2.5-7.3 0.2-1.6-1.5-1.7-2.6-1.9 0.5-1.4 1.7-3.3-0.8-3.5-1.5-0.3-4.8-1.8-2.9-3.4 1.4-1.5-0.5-3.5-1.4-4.8-1.5-1.1-2.4-2.6-3.3-3.9-1.8-0.3-3.5-1.2-3.9-3-0.5-1.4-0.1-0.4 0 0.3" style="fill:#fff;stroke-width:0.8;stroke:#000"/><path d="m164.3 126.6c-0.9-1 2.7-0.5 2.4-1.5 0.5-1.2-0.1-1.2-0.5-1.8-2.4 1.7-1.8-2.4-3.5 0 0.9-0.2 0.8-3.2-0.2-2.3-1.9 0.9-1.5-2.9-1.5-1.4 0.6 1.7 0.4 3.5-1.2 4.6-1.5 1.3-0.9 3.2-0.8 4.7-0.8 1-1.2 2-0.2 3 0.2 1.8 1.9 3 1.9 4.8 0.7 1 2.1 0.9 2.8 2 2.1 0.2 2.2 2.8 4.2 3.1 1.7 0.5 3.7 0.2 5.3 0.5 1.3 0.9 2.7 1.6 4.3 1.8 2 1.1 2.7-1.7 3.9-2.6 0.1-1.4 1.2-1.5 2-0.3 1.7 1.1 3.5-0.8 4.8-1.7 1.2-1.2-4.7 0.2-3.3-0.9 1.9-2-4.4 2.7-4.5 0.2 0.2-1.6-7 2.1-5.4-0.8 0.5-1.4 0.9-0.4-1.7-0.5-1.5-0.3-5.5-2.8-3.6-4.3 1.4-1.5-0.8 0.2-1.6-1.1-1.5-1.1-0.5-0.5-1.5-1.8-1.8-0.3-1-0.9-1.5-2.6-0.8 2-0.6-1.8-0.4-1.2z" opacity="0.1"/><path d="m241.5 131.9c0 0 7.4-16.9 9.2-23.7 1.7-6.3 1.4-16-1-17.8-2.5-1.8-5.8 1.3-6.1 5-0.3 3.7-0.6 4.6 1 11.6 0.8 3.2 0.4 10.7-0.7 14.2-1 3.5-3.3 11.6-2.4 10.7z" fill-opacity="0.2"/></g></g></svg>