<svg xmlns:dc="http://purl.org/dc/elements/1.1/" xmlns:cc="http://creativecommons.org/ns#" xmlns:rdf="http://www.w3.org/1999/02/22-rdf-syntax-ns#" xmlns:svg="http://www.w3.org/2000/svg" xmlns="http://www.w3.org/2000/svg" xmlns:sodipodi="http://sodipodi.sourceforge.net/DTD/sodipodi-0.dtd" xmlns:inkscape="http://www.inkscape.org/namespaces/inkscape" id="Layer_1" data-name="Layer 1" version="1.1" sodipodi:docname="wave-background-2.svg" inkscape:version="1.0.2-2 (e86c870879, 2021-01-15)" viewBox="-206.4 20.63 2288.87 567.14">
  <metadata id="metadata9">
    <rdf:RDF>
      <cc:Work rdf:about="">
        <dc:format>image/svg+xml</dc:format>
        <dc:type rdf:resource="http://purl.org/dc/dcmitype/StillImage"/>
        <dc:title/>
      </cc:Work>
    </rdf:RDF>
  </metadata>
  <defs id="defs7"/>
  <sodipodi:namedview pagecolor="#ffffff" bordercolor="#666666" borderopacity="1" objecttolerance="10" gridtolerance="10" guidetolerance="10" inkscape:pageopacity="0" inkscape:pageshadow="2" inkscape:window-width="1920" inkscape:window-height="1017" id="namedview5" showgrid="false" inkscape:zoom="0.56654452" inkscape:cx="624.35208" inkscape:cy="391.8595" inkscape:window-x="-8" inkscape:window-y="-8" inkscape:window-maximized="1" inkscape:current-layer="Group_15"/>
  <g id="Group_15" data-name="Group 15">
    <path id="Path_2" data-name="Path 2" d="m 1863.6385,340.13478 c -34.2651,12.64284 -141.9637,22.12423 -178.1185,31.09628 -160.2324,50.22351 -357.8559,62.29348 -537.4349,81.64964 C 720.20009,498.99821 649.577,591.24519 374.663,587.33025 299.514,594.46053 66.495863,512.26238 1.5048634,511.22535 -120.68814,509.26711 -59.378249,442.55685 -58.362249,408.59418 -55.751249,321.4926 -369.169,290.3787 -91.635,201.95978 c 326.12362,-141.514446 448.22791,19.95675 861.65291,0.89015 193.58,-8.92714 777.71599,-226.029907 889.66509,-174.252416 161.173,27.098014 472.429,94.028016 416.056,163.469906 -21.197,26.10886 -143.1095,122.30753 -212.1005,148.06736 z" style="fill:#f4f1e8;fill-opacity:1;stroke-width:0.878736" sodipodi:nodetypes="ccccccccccc"/>
  </g>
</svg>